<svg width="18.000000" height="19.000000" viewBox="0 0 18 19" fill="none" xmlns="http://www.w3.org/2000/svg" xmlns:xlink="http://www.w3.org/1999/xlink">
	<desc>
			Created with Pixso.
	</desc>
	<defs/>
	<path id="Vector" d="M17.12 18.52L15.7 5.3C15.68 5.08 15.49 4.92 15.27 4.92L12.65 4.92L12.65 4.11C12.65 1.84 10.8 0 8.53 0C6.26 0 4.41 1.84 4.41 4.11L4.41 4.92L1.72 4.92C1.5 4.92 1.31 5.08 1.29 5.3L-0.13 18.52C-0.15 18.64 -0.11 18.76 -0.04 18.85C0.04 18.95 0.15 19 0.27 19L16.72 19C16.84 19 16.95 18.95 17.02 18.85C17.1 18.76 17.14 18.64 17.12 18.52ZM12.22 7.31C12.43 7.31 12.6 7.47 12.6 7.68C12.6 7.9 12.43 8.06 12.22 8.06C12.01 8.06 11.84 7.9 11.84 7.68C11.84 7.47 12.01 7.31 12.22 7.31ZM5.27 4.11C5.27 2.31 6.73 0.85 8.53 0.85C10.33 0.85 11.8 2.31 11.8 4.11L11.8 4.92L5.27 4.92L5.27 4.11ZM4.84 7.31C5.05 7.31 5.22 7.47 5.22 7.68C5.22 7.9 5.05 8.06 4.84 8.06C4.63 8.06 4.46 7.9 4.46 7.68C4.46 7.47 4.63 7.31 4.84 7.31ZM0.77 18.12L2.09 5.74L4.41 5.74L4.41 6.53C3.94 6.69 3.61 7.14 3.61 7.66C3.61 8.32 4.15 8.87 4.82 8.87C5.48 8.87 6.02 8.32 6.02 7.66C6.02 7.14 5.69 6.69 5.22 6.53L5.22 5.74L11.75 5.74L11.75 6.53C11.27 6.69 10.94 7.14 10.94 7.66C10.94 8.32 11.49 8.87 12.15 8.87C12.81 8.87 13.36 8.32 13.36 7.66C13.36 7.14 13.03 6.69 12.55 6.53L12.55 5.74L14.97 5.74L16.29 18.12L0.77 18.12Z" fill="#FFFFFF" fill-opacity="1.000000" fill-rule="nonzero"/>
</svg>
