<svg width="76.000000" height="89.000000" viewBox="0 0 76 89" fill="none" xmlns="http://www.w3.org/2000/svg" xmlns:xlink="http://www.w3.org/1999/xlink">
	<desc>
			Created with Pixso.
	</desc>
	<defs>
		<clipPath id="clip72_2838">
			<rect id="illustration-cart 1" width="76.000000" height="89.000000" fill="white" fill-opacity="0"/>
		</clipPath>
	</defs>
	<rect id="illustration-cart 1" width="76.000000" height="89.000000" fill="#FFFFFF" fill-opacity="0"/>
	<g clip-path="url(#clip72_2838)">
		<path id="Vector" d="M52.99 58.1C54.62 64.96 50.01 68.4 46.23 68.73C43.43 68.98 41.07 68.02 39.29 65.82C37.53 63.66 37.19 61.18 37.88 58.42L29.42 58.42C30.11 61.5 29.66 64.27 27.36 66.52C25.78 68.07 23.83 68.83 21.59 68.75C18.95 68.67 16.87 67.5 15.33 65.42C13.77 63.33 13.8 60.93 14.17 58.42C13.2 58.24 12.28 58.35 11.37 58.32C9.26 58.25 7.98 56.16 8.99 54.36C9.49 53.48 10.26 53.05 11.34 53.05C18.27 53.06 25.21 53.05 32.14 53.05L50.18 53.05C51.18 53.05 52.05 52.78 52.69 51.96C53.25 51.25 53.51 50.47 53.14 49.57C52.73 48.55 51.99 47.99 50.88 47.86C47.42 47.41 43.97 46.99 40.53 46.46C38.11 46.09 35.66 45.86 33.23 45.53C30.83 45.21 28.43 44.84 26.03 44.53C23.52 44.2 21 43.9 18.48 43.56C15.92 43.23 13.35 42.9 10.78 42.52C9.73 42.35 9.05 41.63 8.75 40.64C6.99 34.86 5.26 29.06 3.52 23.25C2.66 20.39 1.76 17.55 0.85 14.7C0.35 13.15 1.4 11.42 3.03 11.27C3.59 11.22 4.16 11.22 4.71 11.22C22.44 11.22 40.16 11.21 57.89 11.24C58.71 11.24 59.13 11.02 59.44 10.24C61.3 5.3 64.89 2.27 70.02 0.99C70.93 0.76 71.83 0.69 72.76 0.69C74.32 0.68 75.68 1.81 75.79 3.22C75.89 4.59 74.67 5.92 73.06 6.03C71.82 6.12 70.63 6.25 69.47 6.75C66.7 7.96 65.02 10.08 64.12 12.89C62.76 17.08 61.38 21.26 60.01 25.43C58.51 30.01 57 34.58 55.51 39.16C55.16 40.24 54.81 41.32 54.42 42.38C54.2 42.98 54.3 43.38 54.89 43.76C57.66 45.58 58.92 48.17 58.53 51.43C58.16 54.43 56.47 56.49 53.7 57.72C53.46 57.84 53.23 57.97 52.99 58.1ZM46.4 16.5C44.67 16.5 43.01 16.51 41.33 16.48C40.66 16.46 40.43 16.68 40.38 17.38C40.29 19.14 40.11 20.91 39.94 22.67C39.72 25.11 39.44 27.56 39.25 30.02C39.04 32.95 38.77 35.86 38.52 38.79C38.31 40.97 38.16 41 40.33 41.15C41.03 41.2 41.27 41 41.4 40.37C41.97 37.67 42.59 34.98 43.18 32.27C44.08 28.14 45.01 24.02 45.85 19.87C46.08 18.83 46.45 17.79 46.4 16.5ZM34.99 16.66C34.69 16.46 34.35 16.5 34.02 16.5C32.81 16.5 31.62 16.55 30.41 16.48C29.57 16.43 29.27 16.7 29.32 17.56C29.54 20.71 29.47 23.87 29.69 27.03C29.96 30.67 29.86 34.33 30.14 37.99C30.29 39.87 30.24 39.84 32.07 40.07C32.84 40.17 33.1 39.87 33.18 39.17C33.45 36.81 33.62 34.43 33.8 32.07C34.09 28.39 34.51 24.75 34.71 21.07C34.81 19.59 35.23 18.14 34.99 16.66ZM54.62 16.51C54.24 16.5 53.83 16.5 53.45 16.5C51.97 16.5 51.99 16.53 51.69 17.96C50.88 21.89 50.04 25.8 49.19 29.72C48.36 33.53 47.51 37.33 46.67 41.13C46.57 41.6 46.65 41.95 47.22 42.03C47.52 42.07 47.81 42.18 48.13 42.23C48.6 42.3 48.92 42.2 49.07 41.65C49.29 40.85 49.59 40.07 49.84 39.29C51.08 35.53 52.32 31.77 53.55 28.03C54.74 24.43 55.91 20.84 57.1 17.23C57.25 16.78 57.12 16.51 56.62 16.51C55.96 16.5 55.29 16.51 54.62 16.51ZM17.9 16.51C18.79 21.19 19.64 25.66 20.51 30.14C21.02 32.73 21.5 35.35 22.01 37.94C22.07 38.29 22.09 38.69 22.58 38.76C23.28 38.86 24 38.97 24.69 39.07C24.94 38.72 24.88 38.37 24.86 38.06C24.51 34.36 24.64 30.65 24.36 26.94C24.1 23.75 24.25 20.52 23.97 17.33C23.94 16.98 23.99 16.53 23.47 16.53C21.65 16.5 19.84 16.51 17.9 16.51ZM16.47 37.99C16.39 36.39 15.98 35.06 15.73 33.72C15.28 31.22 14.83 28.71 14.36 26.21C13.87 23.63 13.33 21.07 12.9 18.48C12.58 16.56 12.58 16.5 10.65 16.5L8.13 16.5C7.83 16.5 7.51 16.45 7.21 16.73C7.36 17.76 7.75 18.78 8.07 19.79C9.78 25.48 11.5 31.17 13.22 36.88C13.3 37.16 13.38 37.47 13.67 37.52C14.54 37.71 15.45 37.82 16.47 37.99ZM21.81 58.34C20.36 58.35 19.25 59.43 19.29 60.86C19.32 62.61 20.48 63.39 21.86 63.48C23.23 63.56 24.39 62.31 24.41 60.91C24.42 59.5 23.25 58.32 21.81 58.34ZM48.01 60.86C47.99 59.45 46.9 58.34 45.48 58.34C44.05 58.32 42.83 59.53 42.86 60.91C42.89 62.26 44.12 63.49 45.43 63.51C46.8 63.53 48.01 62.28 48.01 60.86ZM53.65 85.77C53.65 87.03 52.93 88.03 51.9 88.31C50.56 88.68 49.32 88.25 48.66 87.05C47.41 84.77 45.78 82.86 43.68 81.31C40.44 78.93 36.77 77.75 32.78 78.02C26.52 78.45 21.75 81.44 18.63 86.88C17.71 88.5 15.83 88.93 14.52 87.86C13.55 87.08 13.25 85.63 13.89 84.47C16.52 79.63 20.43 76.19 25.58 74.16C28.15 73.14 30.85 72.51 33.58 72.61C42.27 72.93 48.93 76.77 53.3 84.32C53.56 84.82 53.72 85.3 53.65 85.77Z" fill="#70A177" fill-opacity="1.000000" fill-rule="nonzero"/>
	</g>
</svg>
