<svg width="37.000000" height="38.000000" viewBox="0 0 37 38" fill="none" xmlns="http://www.w3.org/2000/svg" xmlns:xlink="http://www.w3.org/1999/xlink">
	<desc>
			Created with Pixso.
	</desc>
	<defs/>
	<path id="МЕНЮ" d="M35.13 27.08C34.28 26.24 33.25 25.81 32.03 25.81Q31.14 25.81 30.38 26.12Q29.8 26.36 29.28 26.78C28.51 27.43 28.02 28.26 27.81 29.27L26.56 29.27L26.56 25.98L24.9 25.98L24.9 34.38L26.56 34.38L26.56 30.85L27.77 30.85Q27.91 31.75 28.34 32.47Q28.68 33.04 29.2 33.5Q29.74 33.97 30.36 34.23Q31.13 34.55 32.03 34.55C33.25 34.55 34.28 34.12 35.13 33.28Q35.73 32.67 36.05 31.94Q36.4 31.14 36.4 30.18Q36.4 29.18 36.03 28.36Q35.71 27.66 35.13 27.08ZM9 34.38L9 25.98L7.29 25.98L4.89 29.95L2.48 25.98L0.78 25.98L0.78 34.38L2.43 34.38L2.43 28.94L4.8 32.83L4.99 32.83L7.35 28.93L7.35 34.38L9 34.38ZM15.76 32.8L12.22 32.8L12.22 30.91L15.4 30.91L15.4 29.35L12.22 29.35L12.22 27.56L15.7 27.56L15.7 25.98L10.56 25.98L10.56 34.38L15.76 34.38L15.76 32.8ZM23.34 25.98L21.7 25.98L21.7 29.32L18.58 29.32L18.58 25.98L16.92 25.98L16.92 34.38L18.58 34.38L18.58 30.9L21.7 30.9L21.7 34.38L23.34 34.38L23.34 25.98ZM32.03 32.93C31.26 32.93 30.62 32.67 30.1 32.16C29.58 31.64 29.32 30.98 29.32 30.18Q29.32 29.32 29.7 28.69Q29.86 28.42 30.09 28.19C30.61 27.68 31.26 27.42 32.03 27.42C32.8 27.42 33.44 27.68 33.96 28.2C34.48 28.72 34.74 29.38 34.74 30.18C34.74 30.98 34.48 31.64 33.96 32.16C33.44 32.67 32.8 32.93 32.03 32.93Z" fill="#FFFFFF" fill-opacity="1.000000" fill-rule="evenodd"/>
	<rect id="Rectangle 113" x="5.000000" y="14.000000" rx="1.500000" width="25.000000" height="3.000000" fill="#65906C" fill-opacity="1.000000"/>
	<rect id="Rectangle 114" x="5.000000" y="7.000000" rx="1.500000" width="25.000000" height="3.000000" fill="#65906C" fill-opacity="1.000000"/>
	<rect id="Rectangle 115" x="5.000000" rx="1.500000" width="25.000000" height="3.000000" fill="#65906C" fill-opacity="1.000000"/>
</svg>
